<svg width="32" height="32" viewBox="0 0 32 32" fill="none" xmlns="http://www.w3.org/2000/svg">
<path d="M29 7.98463C28.0431 8.40626 27.0163 8.69221 25.9374 8.81987C27.039 8.16395 27.8822 7.12358 28.2819 5.88771C27.2486 6.49513 26.108 6.93619 24.8927 7.17529C23.9195 6.14299 22.5353 5.5 20.9999 5.5C18.0544 5.5 15.6661 7.8748 15.6661 10.8021C15.6661 11.2173 15.7132 11.6228 15.8042 12.0105C11.372 11.7892 7.44189 9.6777 4.81151 6.46927C4.3517 7.2512 4.09013 8.16231 4.09013 9.13488C4.09013 10.975 5.03246 12.5985 6.46221 13.5484C5.58811 13.5194 4.76601 13.2803 4.04629 12.8828V12.9491C4.04629 15.5177 5.88545 17.6615 8.3241 18.1494C7.8773 18.269 7.40616 18.3352 6.91874 18.3352C6.57433 18.3352 6.24125 18.3013 5.91468 18.2366C6.59378 20.3449 8.56295 21.878 10.896 21.92C9.07148 23.3417 6.7709 24.1866 4.27213 24.1866C3.8416 24.1866 3.41753 24.1607 3 24.1139C5.36069 25.6212 8.1633 26.5 11.1755 26.5C20.987 26.5 26.3502 18.4192 26.3502 11.4112L26.3323 10.7246C27.3802 9.98139 28.2867 9.04764 29 7.98463Z" fill="black"/>
</svg>
